<?xml version="1.0" encoding="utf-8"?><svg viewBox="0 0 502.66 502.66" xmlns="http://www.w3.org/2000/svg" xmlns:xlink="http://www.w3.org/1999/xlink"><style>:root>svg{display:none}:root>svg:target{display:block}</style><svg viewBox="0 0 23 21" id="Burger" xmlns="http://www.w3.org/2000/svg"><path fill-rule="evenodd" clip-rule="evenodd" d="M0 1a1 1 0 011-1h20.97a1 1 0 110 2H1a1 1 0 01-1-1zm0 9.362a1 1 0 011-1h20.97a1 1 0 110 2H1a1 1 0 01-1-1zm1 8.362a1 1 0 100 2h20.97a1 1 0 100-2H1z"/></svg><svg viewBox="0 0 21 21" id="Search" xmlns="http://www.w3.org/2000/svg"><path fill-rule="evenodd" clip-rule="evenodd" d="M13.142 4.562a6.276 6.276 0 11-8.876 8.876 6.276 6.276 0 018.876-8.876zm2.078 9.542A8.277 8.277 0 002.851 3.148a8.276 8.276 0 0010.956 12.368l.04.043 4.682 4.682a1 1 0 001.414-1.415l-4.681-4.681a1.107 1.107 0 00-.043-.041z"/></svg><svg viewBox="0 0 502.664 502.664" id="icon" xmlns="http://www.w3.org/2000/svg"><path d="M153.821 358.226L0 274.337v-46.463l153.821-83.414v54.574L46.636 250.523l107.185 53.431v54.272zm26.273 29.358L282.103 115.08h32.227L212.084 387.584h-31.99zm168.749-29.358v-54.272l107.164-52.999-107.164-52.59v-53.927l153.821 83.522v46.183l-153.821 84.083z"/></svg></svg>